<svg width="20" height="20" viewBox="0 0 20 20" fill="none" xmlns="http://www.w3.org/2000/svg">
<g clip-path="url(#clip0_3_2)">
<path d="M17.9167 3.33334H16.1111V4.44445H17.7778V16.6667H2.22222V4.44445H3.88888V3.33334H2.08333C1.95346 3.33551 1.82529 3.36325 1.70614 3.41496C1.58699 3.46667 1.4792 3.54135 1.38892 3.63473C1.29863 3.72811 1.22763 3.83835 1.17996 3.95918C1.1323 4.08 1.1089 4.20903 1.1111 4.3389V16.7722C1.1089 16.9021 1.1323 17.0311 1.17996 17.152C1.22763 17.2728 1.29863 17.383 1.38892 17.4764C1.4792 17.5698 1.58699 17.6445 1.70614 17.6962C1.82529 17.7479 1.95346 17.7756 2.08333 17.7778H17.9167C18.0465 17.7756 18.1747 17.7479 18.2938 17.6962C18.413 17.6445 18.5208 17.5698 18.6111 17.4764C18.7014 17.383 18.7724 17.2728 18.82 17.152C18.8677 17.0311 18.8911 16.9021 18.8889 16.7722V4.3389C18.8911 4.20903 18.8677 4.08 18.82 3.95918C18.7724 3.83835 18.7014 3.72811 18.6111 3.63473C18.5208 3.54135 18.413 3.46667 18.2938 3.41496C18.1747 3.36325 18.0465 3.33551 17.9167 3.33334Z" fill="#FF4B33"/>
<path d="M4.44446 7.77777H5.55557V8.88888H4.44446V7.77777Z" fill="#FF4B33"/>
<path d="M7.77777 7.77777H8.88888V8.88888H7.77777V7.77777Z" fill="#FF4B33"/>
<path d="M11.1111 7.77777H12.2222V8.88888H11.1111V7.77777Z" fill="#FF4B33"/>
<path d="M14.4445 7.77777H15.5556V8.88888H14.4445V7.77777Z" fill="#FF4B33"/>
<path d="M4.44446 10.5555H5.55557V11.6667H4.44446V10.5555Z" fill="#FF4B33"/>
<path d="M7.77777 10.5555H8.88888V11.6667H7.77777V10.5555Z" fill="#FF4B33"/>
<path d="M11.1111 10.5555H12.2222V11.6667H11.1111V10.5555Z" fill="#FF4B33"/>
<path d="M14.4445 10.5555H15.5556V11.6667H14.4445V10.5555Z" fill="#FF4B33"/>
<path d="M4.44446 13.3333H5.55557V14.4445H4.44446V13.3333Z" fill="#FF4B33"/>
<path d="M7.77777 13.3333H8.88888V14.4445H7.77777V13.3333Z" fill="#FF4B33"/>
<path d="M11.1111 13.3333H12.2222V14.4445H11.1111V13.3333Z" fill="#FF4B33"/>
<path d="M14.4445 13.3333H15.5556V14.4445H14.4445V13.3333Z" fill="#FF4B33"/>
<path d="M5.55556 5.55556C5.7029 5.55556 5.84421 5.49703 5.94839 5.39284C6.05258 5.28865 6.11111 5.14735 6.11111 5V1.66667C6.11111 1.51933 6.05258 1.37802 5.94839 1.27383C5.84421 1.16965 5.7029 1.11111 5.55556 1.11111C5.40821 1.11111 5.26691 1.16965 5.16272 1.27383C5.05853 1.37802 5 1.51933 5 1.66667V5C5 5.14735 5.05853 5.28865 5.16272 5.39284C5.26691 5.49703 5.40821 5.55556 5.55556 5.55556Z" fill="#FF4B33"/>
<path d="M14.4445 5.55556C14.5918 5.55556 14.7331 5.49703 14.8373 5.39284C14.9415 5.28865 15 5.14735 15 5V1.66667C15 1.51933 14.9415 1.37802 14.8373 1.27383C14.7331 1.16965 14.5918 1.11111 14.4445 1.11111C14.2971 1.11111 14.1558 1.16965 14.0516 1.27383C13.9474 1.37802 13.8889 1.51933 13.8889 1.66667V5C13.8889 5.14735 13.9474 5.28865 14.0516 5.39284C14.1558 5.49703 14.2971 5.55556 14.4445 5.55556Z" fill="#FF4B33"/>
<path d="M7.22223 3.33334H12.7778V4.44445H7.22223V3.33334Z" fill="#FF4B33"/>
</g>
<defs>
<clipPath id="clip0_3_2">
<rect width="20" height="20" fill="white"/>
</clipPath>
</defs>
</svg>
